<?xml version="1.0" encoding="UTF-8" standalone="no"?>
<!-- Created with Inkscape (http://www.inkscape.org/) -->

<svg
   xmlns:dc="http://purl.org/dc/elements/1.1/"
   xmlns:cc="http://creativecommons.org/ns#"
   xmlns:rdf="http://www.w3.org/1999/02/22-rdf-syntax-ns#"
   xmlns:svg="http://www.w3.org/2000/svg"
   xmlns="http://www.w3.org/2000/svg"
   xmlns:sodipodi="http://sodipodi.sourceforge.net/DTD/sodipodi-0.dtd"
   xmlns:inkscape="http://www.inkscape.org/namespaces/inkscape"
   width="1600"
   height="1600"
   id="svg5518"
   version="1.1"
   inkscape:version="0.48.2 r9819"
   sodipodi:docname="logo_soviet.svg"
   inkscape:export-filename="/Users/stuartlowe/Projects/strudel/PSL/logo_soviet.png"
   inkscape:export-xdpi="3.5999999"
   inkscape:export-ydpi="3.5999999">
  <defs
     id="defs5520" />
  <sodipodi:namedview
     id="base"
     pagecolor="#ffffff"
     bordercolor="#666666"
     borderopacity="1.0"
     inkscape:pageopacity="0.0"
     inkscape:pageshadow="2"
     inkscape:zoom="0.12374369"
     inkscape:cx="761.53793"
     inkscape:cy="654.57185"
     inkscape:document-units="px"
     inkscape:current-layer="layer1"
     showgrid="true"
     inkscape:window-width="483"
     inkscape:window-height="516"
     inkscape:window-x="536"
     inkscape:window-y="2"
     inkscape:window-maximized="0">
    <inkscape:grid
       type="xygrid"
       id="grid5526"
       empspacing="5"
       visible="true"
       enabled="true"
       snapvisiblegridlinesonly="true" />
  </sodipodi:namedview>
  <metadata
     id="metadata5523">
    <rdf:RDF>
      <cc:Work
         rdf:about="">
        <dc:format>image/svg+xml</dc:format>
        <dc:type
           rdf:resource="http://purl.org/dc/dcmitype/StillImage" />
        <dc:title></dc:title>
      </cc:Work>
    </rdf:RDF>
  </metadata>
  <g
     inkscape:label="Layer 1"
     inkscape:groupmode="layer"
     id="layer1"
     transform="translate(0,547.63782)">
    <g
       id="g5541"
       transform="matrix(1.1854593,0,0,1.1854593,-148.84088,-47.070338)">
      <g
         id="text5528"
         style="font-size:45.02072525px;font-style:normal;font-variant:normal;font-weight:bold;font-stretch:normal;line-height:125%;letter-spacing:0px;word-spacing:0px;fill:#800000;fill-opacity:1;stroke:none;font-family:Silom;-inkscape-font-specification:Silom Bold">
        <path
           id="path5533"
           style="font-size:450.20727539px;fill:#800000;font-family:Silom;-inkscape-font-specification:Silom Bold"
           d="m 464.01791,347.44722 c -3.00164,50.1231 -27.91308,75.18462 -74.7344,75.18462 l -75.18462,0 c -20.40949,0 -38.11762,-7.35338 -53.12446,-22.06016 -14.70681,-14.70673 -22.06019,-32.41487 -22.06015,-53.12446 l 0,-187.28623 c -4e-5,-20.40911 7.20327,-37.96718 21.60995,-52.67425 14.70669,-15.006576 32.5649,-22.510023 53.57466,-22.510361 l 75.18462,0 c 47.12146,3.38e-4 72.0329,25.061851 74.7344,75.184611 l -37.3672,0 c -3.0016,-25.21132 -15.45733,-37.81711 -37.3672,-37.81741 l -37.81741,0 c -10.20484,3e-4 -19.05891,3.75203 -26.56223,11.25519 -7.20344,7.20359 -10.80509,16.05766 -10.80498,26.56222 l 0,187.28623 c -1.1e-4,10.20476 3.60154,19.05883 10.80498,26.56223 7.50332,7.5035 16.35739,11.25522 26.56223,11.25518 l 37.81741,0 c 22.21001,4e-5 34.66574,-12.60575 37.3672,-37.81741 l 37.3672,0"
           inkscape:connector-curvature="0" />
        <path
           id="path5535"
           style="font-size:450.20727539px;fill:#800000;font-family:Silom;-inkscape-font-specification:Silom Bold"
           d="m 764.74231,347.44722 c -3.00164,50.1231 -27.91308,75.18462 -74.73441,75.18462 l -75.18461,0 c -20.40949,0 -38.11763,-7.35338 -53.12446,-22.06016 -14.70682,-14.70673 -22.06019,-32.41487 -22.06016,-53.12446 l 0,-187.28623 c -3e-5,-20.40911 7.20327,-37.96718 21.60995,-52.67425 14.7067,-15.006576 32.5649,-22.510023 53.57467,-22.510361 l 75.18461,0 c 47.12146,3.38e-4 72.03291,25.061851 74.73441,75.184611 l -37.3672,0 C 724.3735,134.94967 711.91778,122.34388 690.0079,122.34358 l -37.81741,0 c -10.20484,3e-4 -19.0589,3.75203 -26.56223,11.25519 -7.20343,7.20359 -10.80508,16.05766 -10.80497,26.56222 l 0,187.28623 c -1.1e-4,10.20476 3.60154,19.05883 10.80497,26.56223 7.50333,7.5035 16.35739,11.25522 26.56223,11.25518 l 37.81741,0 c 22.21002,4e-5 34.66574,-12.60575 37.36721,-37.81741 l 37.3672,0"
           inkscape:connector-curvature="0" />
        <path
           id="path5537"
           style="font-size:450.20727539px;fill:#800000;font-family:Silom;-inkscape-font-specification:Silom Bold"
           d="m 1065.4667,347.44722 c -3.0016,50.1231 -27.9131,75.18462 -74.7344,75.18462 l -75.18462,0 c -20.40948,0 -38.11762,-7.35338 -53.12445,-22.06016 -14.70682,-14.70673 -22.0602,-32.41487 -22.06016,-53.12446 l 0,-187.28623 c -4e-5,-20.40911 7.20327,-37.96718 21.60995,-52.67425 14.7067,-15.006576 32.5649,-22.510023 53.57466,-22.510361 l 75.18462,0 c 47.1215,3.38e-4 72.0329,25.061851 74.7344,75.184611 l -37.3672,0 c -3.0016,-25.21132 -15.4573,-37.81711 -37.3672,-37.81741 l -37.81741,0 c -10.20484,3e-4 -19.05891,3.75203 -26.56223,11.25519 -7.20343,7.20359 -10.80509,16.05766 -10.80498,26.56222 l 0,187.28623 c -1.1e-4,10.20476 3.60155,19.05883 10.80498,26.56223 7.50332,7.5035 16.35739,11.25522 26.56223,11.25518 l 37.81741,0 c 22.21,4e-5 34.6657,-12.60575 37.3672,-37.81741 l 37.3672,0"
           inkscape:connector-curvature="0" />
        <path
           id="path5539"
           style="font-size:450.20727539px;fill:#800000;font-family:Silom;-inkscape-font-specification:Silom Bold"
           d="m 1141.0875,422.63184 0,-337.655461 150.3692,0 c 20.4092,3.38e-4 37.9673,7.503785 52.6743,22.510361 14.7065,14.70707 22.0599,32.26514 22.0601,52.67425 l 0,37.36721 c -2e-4,20.4096 -7.3536,38.11773 -22.0601,53.12446 -14.707,14.70693 -32.2651,22.0603 -52.6743,22.06015 l -75.1846,0 0,149.91903 -75.1846,0 m 75.1846,-187.73644 37.3672,0 c 10.5047,1.9e-4 19.3588,-3.60146 26.5622,-10.80497 7.5033,-7.50325 11.255,-16.35732 11.2552,-26.56223 l 0,-37.36721 c -2e-4,-10.50456 -3.7519,-19.35863 -11.2552,-26.56222 -7.2034,-7.50316 -16.0575,-11.25489 -26.5622,-11.25519 l -37.3672,0 0,112.55182"
           inkscape:connector-curvature="0" />
      </g>
    </g>
  </g>
</svg>
